[Header]
FileType HTR
DataType HTRS
FileVersion 1
NumSegments 22
NumFrames 4
DataFrameRate 24
EulerRotationOrder ZYX
CalibrationUnits mm
RotationUnits Degrees
GlobalAxisofGravity Y
BoneLengthAxis Y
ScaleFactor 1.0
[SegmentNames&Hierarchy]
reference	GLOBAL
Hips	reference
Spine	Hips
Spine1	Spine
Neck	Spine1
Head	Neck
LeftShoulder	Spine1
LeftArm	LeftShoulder
LeftForeArm	LeftArm
LeftHand	LeftForeArm
RightShoulder	Spine1
RightArm	RightShoulder
RightForeArm	RightArm
RightHand	RightForeArm
LeftUpLeg	Hips
LeftLeg	LeftUpLeg
LeftFoot	LeftLeg
LeftToeBase	LeftFoot
RightUpLeg	Hips
RightLeg	RightUpLeg
RightFoot	RightLeg
RightToeBase	RightFoot
[BasePosition]
reference	0	0	0	0	0	0	1
Hips	0	0	0	0	0	0	1
Spine	0	0	0	0	-0	90	1
Spine1	0	0	0	0	0	0	1
Neck	0	0	0	-7.352430803	-7.352430803	90	1
Head	0	0	0	0	-0	90	1
LeftShoulder	0	0	0	0	0	0	1
LeftArm	0	0	0	0	0	0	1
LeftForeArm	0	0	0	0	0	0	1
LeftHand	0	0	0	0	0	0	1
RightShoulder	0	0	0	0	-0	180	1
RightArm	0	0	0	0	-0	180	1
RightForeArm	0	0	0	0	-0	180	1
RightHand	0	0	0	0	-0	180	1
LeftUpLeg	0	0	0	0	-0	-90	1
LeftLeg	0	0	0	0	-0	-90	1
LeftFoot	0	0	0	66.57150701	-66.57150701	-90	1
LeftToeBase	0	0	0	0	-90	0	1
RightUpLeg	0	0	0	0	-0	-90	1
RightLeg	0	0	0	0	-0	-90	1
RightFoot	0	0	0	66.57150701	-66.57150701	-90	1
RightToeBase	0	0	0	0	-90	0	1
[reference]
28	0	0	0	0	-0	0	1.0
29	0	0	0	0	-0	0	1.0
30	0	0	0	0	-0	0	1.0
31	0	0	0	0	-0	0	1.0
[Hips]
28	0.6480967402	8.344050407	0.3535837233	-10.69419479	-115.601181	5.513819695	1.0
29	0.6617889404	8.492308617	0.4384744763	-9.317732811	-118.0496292	4.075814724	1.0
30	0.6757342815	8.577898979	0.5365744829	-9.355279922	-120.7205124	3.768588543	1.0
31	0.690104425	8.584652901	0.6436998248	-8.97718811	-122.9989471	3.070220947	1.0
[Spine]
28	0	0.7478299737	0	-3.346005917	4.064748287	-86.94007874	1.0
29	0	0.7478299737	0	-3.571819782	4.622276306	-86.98249054	1.0
30	0	0.7478299737	0	-3.300479412	5.278305054	-86.67384338	1.0
31	0	0.7478299737	0	-3.325685024	5.614741325	-86.59736633	1.0
[Spine1]
28	0	2.049309969	0	10.7709446	1.38768971	-0.7196583152	1.0
29	0	2.049309969	0	9.70508194	1.549644113	-0.4680614769	1.0
30	0	2.049309969	0	8.699824333	1.721877575	-8.07327815e-005	1.0
31	0	2.049309969	0	7.918338299	1.810731053	0.3950748742	1.0
[Neck]
28	0	2.231709957	0	-1.071343184	7.888210297	-84.66207123	1.0
29	0	2.231709957	0	-0.5642189384	8.57557106	-84.50582123	1.0
30	0	2.231709957	0	0.2429518253	9.309607506	-84.19450378	1.0
31	0	2.231709957	0	1.899875522	9.121964455	-83.78875732	1.0
[Head]
28	0	1.413589954	0.1823999882	-8.551297188	0.3752145469	-96.60684204	1.0
29	0	1.413589954	0.1823999882	-7.608117104	0.5452878475	-97.80545044	1.0
30	0	1.413589954	0.1823999882	-7.194852829	0.8160108328	-100.3172989	1.0
31	0	1.413589954	0.1823999882	-8.411123276	1.95498848	-101.9231186	1.0
[LeftShoulder]
28	0.3649300039	1.825889945	-0.04271000251	-7.801404476	-8.489762306	7.826879025	1.0
29	0.3649300039	1.825889945	-0.04271000251	-5.674042225	-8.379944801	8.378581047	1.0
30	0.3649300039	1.825889945	-0.04271000251	-5.321563721	-8.527121544	9.595414162	1.0
31	0.3649300039	1.825889945	-0.04271000251	-3.250135422	-9.012104988	10.39398479	1.0
[LeftArm]
28	1.24003005	0	0	25.48008537	20.00336647	-75.51882172	1.0
29	1.24003005	0	0	21.06516075	22.94141579	-73.38078308	1.0
30	1.24003005	0	0	16.91682243	27.54031372	-70.78414154	1.0
31	1.24003005	0	0	13.08907318	30.5698204	-67.29234314	1.0
[LeftForeArm]
28	2.847419977	0	0	5.864157677	-11.4276638	-21.87668228	1.0
29	2.847419977	0	0	9.791441917	-10.88352489	-26.70095825	1.0
30	2.847419977	0	0	13.79720306	-10.56288433	-32.62136078	1.0
31	2.847419977	0	0	17.79662323	-10.73181248	-39.58623505	1.0
[LeftHand]
28	2.258270025	0	0	3.717338085	-3.603245974	-2.194615364	1.0
29	2.258270025	0	0	7.290904045	-3.006427765	-3.432615042	1.0
30	2.258270025	0	0	10.79167461	-2.20614624	-4.859205723	1.0
31	2.258270025	0	0	14.00815105	-1.803815961	-5.358037949	1.0
[RightShoulder]
28	-0.3646599948	1.825889945	-0.04271000251	-8.509939194	11.8313036	176.9943237	1.0
29	-0.3646599948	1.825889945	-0.04271000251	-8.584341049	11.91551208	176.2104187	1.0
30	-0.3646599948	1.825889945	-0.04271000251	-8.683620453	11.79229355	175.2591248	1.0
31	-0.3646599948	1.825889945	-0.04271000251	-8.638731003	11.84060574	174.900177	1.0
[RightArm]
28	-1.24003005	0	0	65.13803864	10.77621651	-104.0330353	1.0
29	-1.24003005	0	0	67.00647736	12.78442764	-104.9466019	1.0
30	-1.24003005	0	0	69.11521912	15.6395731	-105.6037674	1.0
31	-1.24003005	0	0	70.92045593	18.90495872	-106.3926239	1.0
[RightForeArm]
28	-2.847419977	0	0	3.836547136	52.1293335	177.7101746	1.0
29	-2.847419977	0	0	1.014495134	63.40773392	173.2849579	1.0
30	-2.847419977	0	0	-8.535904884	74.25624847	161.446106	1.0
31	-2.847419977	0	0	-43.73802185	81.07714844	123.7044983	1.0
[RightHand]
28	-2.258270025	0	0	4.366404533	16.00420761	175.8526611	1.0
29	-2.258270025	0	0	4.565529346	16.08014679	175.7307129	1.0
30	-2.258270025	0	0	5.105494022	15.60820293	176.0720978	1.0
31	-2.258270025	0	0	5.165214062	14.91986752	176.5319519	1.0
[LeftUpLeg]
28	0.9119900465	0	0	-18.02197266	-1.124415398	97.43683624	1.0
29	0.9119900465	0	0	-15.96304607	-5.299672127	95.82922363	1.0
30	0.9119900465	0	0	-12.16865253	-7.671614647	94.59736633	1.0
31	0.9119900465	0	0	-7.938820839	-8.65284729	93.09299469	1.0
[LeftLeg]
28	0	-4.371409893	0	74.71318817	-1.92511034	65.06021118	1.0
29	0	-4.371409893	0	73.64660645	-2.28134656	69.5287323	1.0
30	0	-4.371409893	0	70.09873962	1.076779604	88.16513062	1.0
31	0	-4.371409893	0	65.77586365	-3.402647972	81.83911133	1.0
[LeftFoot]
28	0	-3.918009996	0	-36.68813705	109.2255478	8.33823204	1.0
29	0	-3.918009996	0	-44.24681091	105.5677719	-8.449188232	1.0
30	0	-3.918009996	0	65.15188599	75.84574127	90.83882141	1.0
31	0	-3.918009996	0	98.66105652	78.40695953	127.8891602	1.0
[LeftToeBase]
28	0	-0.5927900076	1.367989898	0	0	0	1.0
29	0	-0.5927900076	1.367989898	0	0	0	1.0
30	0	-0.5927900076	1.367989898	0	0	0	1.0
31	0	-0.5927900076	1.367989898	0	0	0	1.0
[RightUpLeg]
28	-0.9119900465	0	0	-1.125280857	-19.43569756	95.78167725	1.0
29	-0.9119900465	0	0	1.672034025	-18.39753914	93.46037292	1.0
30	-0.9119900465	0	0	4.77658987	-17.00997925	91.85626221	1.0
31	-0.9119900465	0	0	7.410511971	-16.1092701	90.17462921	1.0
[RightLeg]
28	0	-4.371409893	0	23.7539463	-1.997386932	81.42700958	1.0
29	0	-4.371409893	0	17.28411293	-3.062199831	84.32815552	1.0
30	0	-4.371409893	0	10.7687273	-4.427072525	87.11955261	1.0
31	0	-4.371409893	0	4.850729942	-4.642368317	89.93118286	1.0
[RightFoot]
28	0	-3.918009996	0	59.79962921	71.66680908	121.9092941	1.0
29	0	-3.918009996	0	71.65454865	71.05614471	128.4891968	1.0
30	0	-3.918009996	0	82.88894653	69.78997803	133.9387207	1.0
31	0	-3.918009996	0	88.13052368	68.93077087	135.5090485	1.0
[RightToeBase]
28	0	-0.5927900076	1.367989898	0	0	0	1.0
29	0	-0.5927900076	1.367989898	0	0	0	1.0
30	0	-0.5927900076	1.367989898	0	0	0	1.0
31	0	-0.5927900076	1.367989898	0	0	0	1.0
[EndOfFile]
